# xmcd
# 
# Track frame offsets:
#     150
#     24679
#     39241
#     50776
#     84583
#     108021
#     140661
#     157024
#     170231
#     197616
#     219917
#     242506
#     294556
# 
# Disc length: 4166
# 
# Revision: 2
# Processed by: cddbd v1.5.2PL0 Copyright (c) Steve Scherf et al.
# Submitted via: fre:ac v1.0.17
# 
DISCID=b710440d
DTITLE=Robert Walter - Super Heavy Organ
DYEAR=2005
DGENRE=Acid Jazz
TTITLE0=Adelita
TTITLE1=Kickin' Up Dust
TTITLE2=Spell
TTITLE3=El Cuervo
TTITLE4=Criminals Have a Name for It
TTITLE5=34 Small
TTITLE6=Don't Hate, Congratulate
TTITLE7=Poor Tom
TTITLE8=(Smells Like) Dad's Drunk Again
TTITLE9=Big Dummy
TTITLE10=Hardware
TTITLE11=Cabrillo
TTITLE12=[Data Track]
EXTD=YEAR: 2005
EXTT0=
EXTT1=
EXTT2=
EXTT3=
EXTT4=
EXTT5=
EXTT6=
EXTT7=
EXTT8=
EXTT9=
EXTT10=
EXTT11=
EXTT12=
PLAYORDER=
